<svg xmlns="http://www.w3.org/2000/svg" width="24" height="24" viewBox="0 0 24 24">
  <g id="Grupo_16" data-name="Grupo 16" transform="translate(68 -381)">
    <g id="Grupo_13" data-name="Grupo 13" transform="translate(0 19)">
      <rect id="Rect치ngulo_12" data-name="Rect치ngulo 12" width="24" height="24" transform="translate(-68 362)" fill="none"/>
      <path id="location_on_24dp_E8EAED_FILL0_wght300_GRAD0_opsz24" d="M186.477-849.584a1.931,1.931,0,0,0,1.419-.591,1.941,1.941,0,0,0,.589-1.421,1.932,1.932,0,0,0-.591-1.419,1.941,1.941,0,0,0-1.421-.589,1.932,1.932,0,0,0-1.419.591,1.941,1.941,0,0,0-.589,1.421,1.932,1.932,0,0,0,.591,1.419A1.942,1.942,0,0,0,186.477-849.584Zm0,8.507a28.552,28.552,0,0,0,5-5.605,9.042,9.042,0,0,0,1.731-4.7,6.823,6.823,0,0,0-1.933-5,6.464,6.464,0,0,0-4.794-1.959,6.464,6.464,0,0,0-4.794,1.959,6.823,6.823,0,0,0-1.933,5,9.042,9.042,0,0,0,1.731,4.7A28.551,28.551,0,0,0,186.475-841.077Zm0,2.22a35.6,35.6,0,0,1-6.3-6.772,10.575,10.575,0,0,1-2.1-5.754,8.236,8.236,0,0,1,2.491-6.234,8.251,8.251,0,0,1,5.9-2.384,8.251,8.251,0,0,1,5.9,2.384,8.236,8.236,0,0,1,2.491,6.234,10.575,10.575,0,0,1-2.1,5.754A35.6,35.6,0,0,1,186.475-838.857ZM186.475-851.594Z" transform="translate(-242.475 1223.428)" fill="#107286"/>
    </g>
    <g id="Grupo_14" data-name="Grupo 14" transform="translate(0 19)">
      <rect id="Rect치ngulo_12-2" data-name="Rect치ngulo 12" width="24" height="24" transform="translate(-68 362)" fill="none"/>
    </g>
  </g>
</svg>
