<!-- Este icono tiene una sombra alrededor suyo (se usa en el mapa)-->
<svg xmlns="http://www.w3.org/2000/svg" xmlns:xlink="http://www.w3.org/1999/xlink" width="35.819" height="40.438" viewBox="0 0 35.819 40.438">
  <defs>
    <filter id="location_on_24dp_E8EAED_FILL1_wght300_GRAD0_opsz24" x="0" y="0" width="35.819" height="40.438" filterUnits="userSpaceOnUse">
      <feOffset dy="3" input="SourceAlpha"/>
      <feGaussianBlur stdDeviation="3" result="blur"/>
      <feFlood flood-opacity="0.161"/>
      <feComposite operator="in" in2="blur"/>
      <feComposite in="SourceGraphic"/>
    </filter>
  </defs>
  <g id="Grupo_8" data-name="Grupo 8" transform="translate(41.999 -184.66)">
    <g id="Grupo_6" data-name="Grupo 6" transform="translate(-37 189)">
      <rect id="Rectángulo_11" data-name="Rectángulo 11" width="26" height="26" fill="none"/>
    </g>
    <g transform="matrix(1, 0, 0, 1, -42, 184.66)" filter="url(#location_on_24dp_E8EAED_FILL1_wght300_GRAD0_opsz24)">
      <path id="location_on_24dp_E8EAED_FILL1_wght300_GRAD0_opsz24-2" data-name="location_on_24dp_E8EAED_FILL1_wght300_GRAD0_opsz24" d="M186.991-848.946a2.05,2.05,0,0,0,1.506-.627,2.06,2.06,0,0,0,.626-1.508,2.051,2.051,0,0,0-.627-1.507,2.06,2.06,0,0,0-1.508-.625,2.049,2.049,0,0,0-1.506.627,2.06,2.06,0,0,0-.626,1.509,2.049,2.049,0,0,0,.627,1.506A2.06,2.06,0,0,0,186.991-848.946Zm0,11.384a37.79,37.79,0,0,1-6.683-7.187,11.222,11.222,0,0,1-2.227-6.106,8.74,8.74,0,0,1,2.643-6.615,8.756,8.756,0,0,1,6.266-2.53,8.756,8.756,0,0,1,6.266,2.53,8.74,8.74,0,0,1,2.643,6.615,11.222,11.222,0,0,1-2.227,6.106A37.789,37.789,0,0,1,186.989-837.562Z" transform="translate(-169.08 866)" fill="#b54900"/>
    </g>
    <path id="location_on_24dp_E8EAED_FILL1_wght300_GRAD0_opsz24_-_Contorno" data-name="location_on_24dp_E8EAED_FILL1_wght300_GRAD0_opsz24 - Contorno" d="M186.989-860a8.756,8.756,0,0,0-6.266,2.53,8.74,8.74,0,0,0-2.643,6.615,11.222,11.222,0,0,0,2.227,6.106,37.79,37.79,0,0,0,6.683,7.187,37.789,37.789,0,0,0,6.683-7.187,11.222,11.222,0,0,0,2.227-6.106,8.74,8.74,0,0,0-2.643-6.615,8.756,8.756,0,0,0-6.266-2.53m0,11.054a2.06,2.06,0,0,1-1.509-.625,2.049,2.049,0,0,1-.627-1.506,2.06,2.06,0,0,1,.626-1.509,2.049,2.049,0,0,1,1.506-.627,2.06,2.06,0,0,1,1.508.625,2.051,2.051,0,0,1,.627,1.507,2.06,2.06,0,0,1-.626,1.508,2.05,2.05,0,0,1-1.506.627m0-12.054a9.764,9.764,0,0,1,6.958,2.807,9.741,9.741,0,0,1,2.952,7.338,12.23,12.23,0,0,1-2.4,6.663,38.938,38.938,0,0,1-6.859,7.386,1,1,0,0,1-1.31,0,38.941,38.941,0,0,1-6.859-7.386,12.231,12.231,0,0,1-2.4-6.663,9.741,9.741,0,0,1,2.952-7.338A9.764,9.764,0,0,1,186.989-861Zm0,11.054a1.05,1.05,0,0,0,.8-.333,1.06,1.06,0,0,0,.334-.8,1.052,1.052,0,0,0-.333-.8,1.06,1.06,0,0,0-.8-.333,1.05,1.05,0,0,0-.8.333,1.06,1.06,0,0,0-.334.8,1.05,1.05,0,0,0,.333.8A1.06,1.06,0,0,0,186.991-849.946Z" transform="translate(-211.079 1050.66)" fill="#fff"/>
  </g>
</svg>
