<svg xmlns="http://www.w3.org/2000/svg" width="16" height="16" viewBox="0 0 16 16">
  <g id="Grupo_7" data-name="Grupo 7" transform="translate(37 -189)">
    <g id="Grupo_6" data-name="Grupo 6" transform="translate(-595 -942.461)">
      <rect id="Rectángulo_11" data-name="Rectángulo 11" width="16" height="16" transform="translate(558 1131.461)" fill="none"/>
    </g>
    <path id="location_on_24dp_E8EAED_FILL1_wght300_GRAD0_opsz24" d="M183.6-853.15a1.27,1.27,0,0,0,.933-.389,1.276,1.276,0,0,0,.388-.935,1.271,1.271,0,0,0-.389-.934,1.277,1.277,0,0,0-.935-.387,1.27,1.27,0,0,0-.933.389,1.277,1.277,0,0,0-.388.935,1.27,1.27,0,0,0,.389.933A1.277,1.277,0,0,0,183.6-853.15Zm0,7.054a23.416,23.416,0,0,1-4.141-4.453,6.954,6.954,0,0,1-1.38-3.784,5.416,5.416,0,0,1,1.638-4.1A5.426,5.426,0,0,1,183.6-860a5.426,5.426,0,0,1,3.883,1.568,5.416,5.416,0,0,1,1.638,4.1,6.954,6.954,0,0,1-1.38,3.784A23.415,23.415,0,0,1,183.6-846.1Z" transform="translate(-212.601 1050.029)" fill="#b54900"/>
    <path id="location_on_24dp_E8EAED_FILL1_wght300_GRAD0_opsz24_-_Contorno" data-name="location_on_24dp_E8EAED_FILL1_wght300_GRAD0_opsz24 - Contorno" d="M183.6-860a5.426,5.426,0,0,0-3.883,1.568,5.416,5.416,0,0,0-1.638,4.1,6.954,6.954,0,0,0,1.38,3.784A23.416,23.416,0,0,0,183.6-846.1a23.415,23.415,0,0,0,4.141-4.453,6.954,6.954,0,0,0,1.38-3.784,5.416,5.416,0,0,0-1.638-4.1A5.426,5.426,0,0,0,183.6-860m0,6.85a1.277,1.277,0,0,1-.935-.387,1.27,1.27,0,0,1-.389-.933,1.277,1.277,0,0,1,.388-.935,1.27,1.27,0,0,1,.933-.389,1.277,1.277,0,0,1,.935.387,1.271,1.271,0,0,1,.389.934,1.276,1.276,0,0,1-.388.935,1.27,1.27,0,0,1-.933.389m0-7.85a6.419,6.419,0,0,1,4.574,1.845,6.4,6.4,0,0,1,1.946,4.822,7.944,7.944,0,0,1-1.549,4.34,24.5,24.5,0,0,1-4.317,4.653,1,1,0,0,1-1.31,0,24.5,24.5,0,0,1-4.317-4.653,7.944,7.944,0,0,1-1.549-4.34,6.4,6.4,0,0,1,1.946-4.822A6.419,6.419,0,0,1,183.6-861Zm0,6.85a.276.276,0,0,0,.225-.095.282.282,0,0,0,.1-.229.277.277,0,0,0-.095-.226.282.282,0,0,0-.229-.1.276.276,0,0,0-.225.095.282.282,0,0,0-.1.229.276.276,0,0,0,.095.225A.282.282,0,0,0,183.6-854.15Z" transform="translate(-212.601 1050.029)" fill="#fff"/>
  </g>
</svg>
