<svg xmlns="http://www.w3.org/2000/svg" width="24" height="24" viewBox="0 0 24 24">
  <g id="Grupo_17" data-name="Grupo 17" transform="translate(106 -399)">
    <g id="Grupo_15" data-name="Grupo 15" transform="translate(-38 37)">
      <rect id="Rectángulo_12" data-name="Rectángulo 12" width="24" height="24" transform="translate(-68 362)" fill="none"/>
    </g>
    <path id="location_on_24dp_E8EAED_FILL1_wght300_GRAD0_opsz24" d="M186.432-849.64a1.921,1.921,0,0,0,1.411-.588,1.93,1.93,0,0,0,.586-1.413,1.922,1.922,0,0,0-.588-1.412,1.931,1.931,0,0,0-1.414-.586,1.921,1.921,0,0,0-1.412.588,1.931,1.931,0,0,0-.586,1.414,1.921,1.921,0,0,0,.588,1.412A1.931,1.931,0,0,0,186.432-849.64Zm0,10.669a35.418,35.418,0,0,1-6.263-6.735,10.517,10.517,0,0,1-2.087-5.723,8.192,8.192,0,0,1,2.477-6.2A8.206,8.206,0,0,1,186.43-860a8.207,8.207,0,0,1,5.873,2.371,8.192,8.192,0,0,1,2.477,6.2,10.517,10.517,0,0,1-2.087,5.723A35.415,35.415,0,0,1,186.43-838.971Z" transform="translate(-280.43 1260.485)" fill="#fff"/>
  </g>
</svg>
