<!-- Este icono tiene una sombra alrededor suyo (se usa en el mapa)-->
<svg xmlns="http://www.w3.org/2000/svg" xmlns:xlink="http://www.w3.org/1999/xlink" width="31" height="31" viewBox="0 0 31 31">
  <defs>
    <filter id="Trazado_5" x="0" y="0" width="31" height="31" filterUnits="userSpaceOnUse">
      <feOffset dy="3" input="SourceAlpha"/>
      <feGaussianBlur stdDeviation="3" result="blur"/>
      <feFlood flood-opacity="0.161"/>
      <feComposite operator="in" in2="blur"/>
      <feComposite in="SourceGraphic"/>
    </filter>
  </defs>
  <g id="Grupo_25" data-name="Grupo 25" transform="translate(-1054 83)">
    <g transform="matrix(1, 0, 0, 1, 1054, -83)" filter="url(#Trazado_5)">
      <path id="Trazado_5-2" data-name="Trazado 5" d="M6.5,0A6.5,6.5,0,1,1,0,6.5,6.5,6.5,0,0,1,6.5,0Z" transform="translate(9 6)" fill="#fff"/>
    </g>
    <path id="Elipse_2_-_Contorno" data-name="Elipse 2 - Contorno" d="M6.5,2A4.5,4.5,0,1,0,11,6.5,4.505,4.505,0,0,0,6.5,2m0-2A6.5,6.5,0,1,1,0,6.5,6.5,6.5,0,0,1,6.5,0Z" transform="translate(1063 -77)" fill="#b54900"/>
  </g>
</svg>
